<?xml version="1.0" encoding="UTF-8"?>
<svg version="1.1" xmlns="http://www.w3.org/2000/svg" width="225" height="225">
<path d="M0 0 C3.78519454 3.52535744 6.38245932 7.56451319 9 12 C10.01320312 10.73542969 10.01320312 10.73542969 11.046875 9.4453125 C11.94754489 8.3382391 12.84860725 7.23148492 13.75 6.125 C14.1934375 5.56941406 14.636875 5.01382813 15.09375 4.44140625 C18.32353467 0.49916907 20.48630691 -1.59406199 25.515625 -2.40625 C31.75090511 -2.62003103 35.48551818 -1.94389625 40.20703125 2.2421875 C40.79871094 2.82226562 41.39039063 3.40234375 42 4 C42.60199219 4.51820312 43.20398438 5.03640625 43.82421875 5.5703125 C47.28630168 8.91134358 48.45698548 11.61607925 48.75 16.4375 C48.34914169 22.60069655 46.07426098 25.56558336 42 30 C40.46905322 31.77632133 38.95128909 33.56351926 37.43261719 35.3503418 C35.86763129 37.18535616 34.2884428 39.00726722 32.70703125 40.828125 C29.67434763 44.27899485 29.67434763 44.27899485 27 48 C27.8915296 52.35858914 30.02060137 56.16701692 32.09765625 60.0703125 C37.41145776 71.43402655 32.8789202 86.92052126 29.05004883 98.21777344 C24.54700363 110.62536967 17.22561746 120.61532017 8 130 C7.31421875 130.69867188 6.6284375 131.39734375 5.921875 132.1171875 C-3.9806324 141.54290751 -16.05907485 147.064935 -29 151 C-29.76441406 151.23460937 -30.52882813 151.46921875 -31.31640625 151.7109375 C-52.75143053 157.32390401 -76.56588451 152.99483695 -95.5234375 142.13671875 C-100.41190108 139.206033 -104.7729391 135.81822599 -109 132 C-109.75667969 131.33613281 -110.51335937 130.67226562 -111.29296875 129.98828125 C-126.58579995 115.74831278 -135.95369739 94.34447791 -137.203125 73.6328125 C-137.53285666 48.95789303 -130.40102496 27.57359329 -113.33984375 9.375 C-83.01467701 -21.40580363 -35.14281944 -26.52804269 0 0 Z M-103 20 C-115.58999244 34.11546698 -122.56445217 52.36794838 -122.20703125 71.34375 C-120.99658366 86.87402102 -115.71354547 102.46066401 -105 114 C-104.27167969 114.81855469 -103.54335937 115.63710937 -102.79296875 116.48046875 C-90.98423749 129.09043864 -74.92358371 137.72082487 -57.4765625 138.30078125 C-55.52609105 138.31520006 -53.57551402 138.31896722 -51.625 138.3125 C-50.17867187 138.33666992 -50.17867187 138.33666992 -48.703125 138.36132812 C-30.08316688 138.37380799 -14.12817235 129.83533079 -0.8125 117.3125 C10.63774829 105.40787678 18.09858846 89.56395738 18.1875 72.9375 C18.20167969 71.72964844 18.21585938 70.52179688 18.23046875 69.27734375 C18.01494866 66.21257502 17.61519102 64.56004585 16 62 C15.34 62 14.68 62 14 62 C12.64617851 63.48738235 11.36860114 65.04430551 10.125 66.625 C6.49871468 71.16077167 2.79731913 75.60659709 -1 80 C-4.55518104 84.12409925 -8.06794418 88.27210515 -11.5 92.5 C-15.38783992 97.2861134 -19.37547866 101.97720109 -23.40258789 106.64599609 C-25.97077482 109.62494549 -28.52181749 112.61517413 -31.03515625 115.640625 C-31.52322754 116.22602051 -32.01129883 116.81141602 -32.51416016 117.41455078 C-33.43320305 118.51897866 -34.34852409 119.62651924 -35.25927734 120.73779297 C-41.7239322 128.48691525 -41.7239322 128.48691525 -46.98046875 129.671875 C-54.75316553 129.86122206 -58.86835592 128.60326426 -64.609375 123.34375 C-65.39828125 122.5703125 -66.1871875 121.796875 -67 121 C-68.64115445 119.51564375 -70.28703667 118.0364987 -71.9375 116.5625 C-72.76378906 115.80839844 -73.59007812 115.05429688 -74.44140625 114.27734375 C-77.02648811 111.97642356 -79.67923085 109.79476541 -82.375 107.625 C-86.98257007 103.89723468 -91.37322531 99.99587238 -95.70800781 95.95898438 C-98.61208001 93.25565449 -101.57525958 90.6618546 -104.625 88.125 C-108.66312738 84.58954407 -109.73464876 82.00908798 -110.4375 76.6875 C-109.60784183 69.69466687 -105.32007188 64.44025175 -99.8828125 60.1328125 C-95.2730879 57.35932674 -91.31089797 57.7206283 -86.1875 58.8125 C-81.2700038 60.91588216 -77.70391948 64.6579898 -73.875 68.30078125 C-69.45394648 72.4515258 -64.71808807 76.19557343 -60 80 C-57.99287264 81.65839866 -55.99573497 83.32789773 -54 85 C-50.40278644 83.5045292 -48.36902779 81.47293692 -45.8125 78.5625 C-45.02488281 77.66660156 -44.23726563 76.77070312 -43.42578125 75.84765625 C-40.30662031 72.18603254 -37.27513645 68.45815478 -34.25 64.71875 C-32.06498431 62.07852271 -29.80828609 59.5327028 -27.5 57 C-22.79422348 51.82773781 -18.38242961 46.44695595 -14 41 C-13.27296875 40.10667969 -12.5459375 39.21335938 -11.796875 38.29296875 C-8.30688252 33.98218174 -4.96269725 29.69093732 -2 25 C-8.22190697 12.19153217 -14.72644322 7.16278733 -28 2 C-55.06978652 -6.94238786 -82.72125916 0.41383911 -103 20 Z " fill="#FE8C04" transform="translate(164,44)"/>
<path d="M0 0 C4.82941603 4.33661848 6.34158229 7.79702535 9 14 C5.7 17.96 2.4 21.92 -1 26 C-3.64712875 23.35287125 -4.64227588 21.9174089 -6.1875 18.6875 C-11.28858409 9.34812647 -21.14180345 5.2155836 -30.9140625 2.05859375 C-49.61561862 -3.04855944 -68.28844553 -1.13277392 -85.5625 7.6875 C-101.58455053 16.93187736 -112.49862413 30.50733493 -117.99609375 48.20703125 C-123.25040516 68.19352682 -120.85584485 86.83442658 -111 105 C-108.92427272 108.29533663 -106.64303154 111.14597015 -104 114 C-103.34515625 114.74507812 -102.6903125 115.49015625 -102.015625 116.2578125 C-91.34617671 127.74499222 -76.08542904 135.99779228 -60.296875 137.20703125 C-57.40352356 137.30320914 -54.51986 137.32209834 -51.625 137.3125 C-50.17867187 137.33666992 -50.17867187 137.33666992 -48.703125 137.36132812 C-30.40224949 137.37359413 -14.47381669 129.09489314 -1.3125 116.8125 C9.81069003 105.19185067 17.16039921 89.30243875 17.125 73.125 C17.12757813 71.88492188 17.13015625 70.64484375 17.1328125 69.3671875 C17.11921857 65.89633264 17.11921857 65.89633264 16 62.25 C16 56.61848391 20.32965203 52.99160381 24 49 C27 50 27 50 28.5703125 52.58203125 C29.08335937 53.64808594 29.59640625 54.71414062 30.125 55.8125 C30.64320313 56.87082031 31.16140625 57.92914063 31.6953125 59.01953125 C37.55965943 72.41622799 32.55001014 89.21885162 27.5378418 102.26660156 C23.13560384 112.98670674 16.07123684 121.7896039 8 130 C7.31421875 130.69867188 6.6284375 131.39734375 5.921875 132.1171875 C-3.9806324 141.54290751 -16.05907485 147.064935 -29 151 C-29.76441406 151.23460937 -30.52882813 151.46921875 -31.31640625 151.7109375 C-52.75143053 157.32390401 -76.56588451 152.99483695 -95.5234375 142.13671875 C-100.41190108 139.206033 -104.7729391 135.81822599 -109 132 C-109.75667969 131.33613281 -110.51335937 130.67226562 -111.29296875 129.98828125 C-126.58579995 115.74831278 -135.95369739 94.34447791 -137.203125 73.6328125 C-137.53285666 48.95789303 -130.40102496 27.57359329 -113.33984375 9.375 C-82.97710234 -21.44394287 -35.19068655 -26.47289001 0 0 Z " fill="#6B849C" transform="translate(164,44)"/>
<path d="M0 0 C0.95003906 -0.01675781 1.90007812 -0.03351562 2.87890625 -0.05078125 C5.79552152 0.36333359 6.6522863 1.03439902 8.4375 3.3125 C7.89609375 3.14878906 7.3546875 2.98507813 6.796875 2.81640625 C4.03527407 2.22659413 1.50931861 2.21640692 -1.3125 2.25 C-2.29734375 2.25902344 -3.2821875 2.26804688 -4.296875 2.27734375 C-5.41835937 2.29474609 -5.41835937 2.29474609 -6.5625 2.3125 C-6.81773437 2.90546875 -7.07296875 3.4984375 -7.3359375 4.109375 C-8.68066498 6.52474538 -10.05464367 7.82461706 -12.1875 9.5625 C-12.81914062 10.08328125 -13.45078125 10.6040625 -14.1015625 11.140625 C-14.58367187 11.52734375 -15.06578125 11.9140625 -15.5625 12.3125 C-15.5625 8.81198475 -15.03738681 8.2998084 -12.8125 5.75 C-12.30203125 5.15058594 -11.7915625 4.55117188 -11.265625 3.93359375 C-7.76173694 0.59847094 -4.77520743 0.01949064 0 0 Z " fill="#FE9626" transform="translate(192.5625,41.6875)"/>
</svg>
